# xmcd
#
# Track frame offsets: 
#        152
#        18187
#        35112
#        56985
#        70170
#        84900
#        101297
#        118897
#        132440
#        146352
#        162415
#
# Disc length: 2370 seconds
#
# Revision: 0
# Processed by: cddbd v1.5.2PL0 Copyright (c) Steve Scherf et al.
# Submitted via: ExactAudioCopy v1.1
#
DISCID=9609400b
DTITLE=Various Artist - Country Visions Volume I
DYEAR=1996
DGENRE=Country
TTITLE0=Ty England - New Faces In The Fields
TTITLE1=Aaron Tippin - I Got It Honest
TTITLE2=Alabama - Pass It On Down
TTITLE3=Lari White - Don't Fence Me In
TTITLE4=Earl Thomas Conley/Keith Whitley - Brotherly Love
TTITLE5=Waylon Jennings - America
TTITLE6=The Judds - Love Can Build A Bridge
TTITLE7=John Anderson - 30,000 Feet
TTITLE8=Dolly Parton - Coat Of Many Colors
TTITLE9=Ty England - Once You Learn
TTITLE10=Ty England - Redneck Son
EXTD=
EXTT0=
EXTT1=
EXTT2=
EXTT3=
EXTT4=
EXTT5=
EXTT6=
EXTT7=
EXTT8=
EXTT9=
EXTT10=
PLAYORDER=
